<?xml version="1.0" encoding="utf-8"?>
<!-- Generator: Adobe Illustrator 23.0.3, SVG Export Plug-In . SVG Version: 6.00 Build 0)  -->
<svg version="1.1" id="Layer_1" xmlns="http://www.w3.org/2000/svg" xmlns:xlink="http://www.w3.org/1999/xlink" x="0px" y="0px"
	 viewBox="0 0 1578.04 1056.15" style="enable-background:new 0 0 1578.04 1056.15;" xml:space="preserve">
<style type="text/css">
	.st0{fill:#FFFFFF;}
	.st1{fill:url(#SVGID_1_);}
	.st2{fill:url(#SVGID_2_);}
	.st3{fill:#204860;}
	.st4{fill:url(#SVGID_3_);}
	.st5{opacity:0.3;fill:url(#SVGID_4_);}
	.st6{fill:#E8F2FC;}
	.st7{fill:#294661;}
	.st8{fill:url(#SVGID_5_);}
	.st9{fill:url(#SVGID_6_);}
	.st10{fill:url(#SVGID_7_);}
	.st11{fill:#FFFFFF;stroke:#D1E6F9;stroke-width:1.1085;stroke-miterlimit:10;}
	.st12{fill:#CBB8FF;}
	.st13{fill:#B094FF;}
	.st14{fill:#1A82E2;}
	.st15{fill:#00B3E3;}
	.st16{fill:#99E1F4;}
	.st17{fill:#D1E6F9;}
	.st18{fill:url(#SVGID_8_);}
	.st19{fill:#489BE8;}
	.st20{fill:#A3CDF3;}
	.st21{fill:#129753;}
	.st22{fill:url(#SVGID_9_);}
	.st23{fill:#76B4EE;}
	.st24{fill:url(#SVGID_10_);}
	.st25{clip-path:url(#XMLID_5_);fill:none;stroke:#294661;stroke-width:21.7738;stroke-miterlimit:10;}
	.st26{fill:url(#SVGID_11_);}
	.st27{fill:url(#SVGID_12_);}
	.st28{fill:url(#SVGID_13_);}
	.st29{fill:url(#SVGID_14_);}
	.st30{fill:url(#SVGID_15_);}
	.st31{fill:url(#SVGID_16_);}
	.st32{clip-path:url(#XMLID_7_);fill:none;stroke:#294661;stroke-width:21.7738;stroke-miterlimit:10;}
	.st33{fill:url(#SVGID_17_);}
	.st34{opacity:0.8;}
	.st35{fill:url(#SVGID_18_);}
	.st36{fill:#284660;}
	.st37{fill:#18C96E;}
	.st38{fill:url(#SVGID_19_);}
	.st39{fill:url(#SVGID_20_);}
	.st40{fill:#00BCD4;}
	.st41{fill:url(#SVGID_21_);}
	.st42{fill:#7C4DFF;}
	.st43{fill:#5D3ABF;}
	.st44{fill:url(#SVGID_22_);}
	.st45{fill:url(#SVGID_23_);}
	.st46{fill:url(#SVGID_24_);}
	.st47{fill:url(#SVGID_25_);}
	.st48{fill:#FF9900;}
	.st49{fill:#FFD699;}
	.st50{fill:#FFAD33;}
	.st51{fill:url(#SVGID_26_);}
	.st52{opacity:0.2;fill:#FFEBCC;}
</style>
<g>
	<g>
		<g>
			<path class="st0" d="M1431.21,655.95c-1.04-3.71,1.81-7.34,4.77-9.8c2.96-2.46,6.47-4.82,7.48-8.54c1.03-3.81-1-7.85-3.78-10.65
				c-2.59-2.6-5.91-4.51-9.51-5.17c-3.51-0.64-7.11-0.09-10.68-0.11c-3.59-0.02-7.24-0.66-10.38-2.38
				c-3.14-1.73-5.74-4.64-6.57-8.13c-0.67-2.79-0.19-5.72-0.43-8.58c-0.69-8.2-7.5-15.04-15.37-17.42
				c-7.87-2.38-16.5-0.9-24.07,2.32c-5.03,2.14-10.2,5.64-11.27,11c-0.56,2.81,0.13,5.77,1.46,8.32
				c3.81,7.28,12.19,10.94,20.25,12.59c8.05,1.65,16.47,1.88,24.13,4.86c2.42,0.94,4.98,2.44,5.58,4.96
				c0.47,1.95-0.37,3.98-0.29,5.98c0.16,3.6,3.28,6.42,6.58,7.86c3.31,1.44,6.96,1.95,10.26,3.41c3.3,1.46,6.39,4.33,6.48,7.93"/>
		</g>
		<g>
			<linearGradient id="SVGID_1_" gradientUnits="userSpaceOnUse" x1="1385.7822" y1="645.4396" x2="1410.7485" y2="585.5204">
				<stop  offset="0" style="stop-color:#E8F2FC"/>
				<stop  offset="0.8436" style="stop-color:#D1E6F9"/>
			</linearGradient>
			<path class="st1" d="M1429.66,659.28c-1.04-3.71,1.81-7.34,4.77-9.8c2.96-2.46,6.47-4.82,7.48-8.54c1.03-3.81-1-7.85-3.78-10.65
				c-2.59-2.6-5.91-4.51-9.51-5.17c-3.51-0.64-7.11-0.09-10.68-0.11c-3.59-0.02-7.24-0.66-10.38-2.38
				c-3.14-1.73-5.74-4.64-6.57-8.13c-0.67-2.79-0.19-5.72-0.43-8.58c-0.69-8.2-7.5-15.04-15.37-17.42
				c-7.87-2.38-16.5-0.9-24.07,2.32c-5.03,2.14-10.2,5.64-11.27,11c-0.56,2.81,0.13,5.77,1.46,8.32
				c3.81,7.28,12.19,10.94,20.25,12.59c8.05,1.65,16.47,1.88,24.13,4.86c2.42,0.94,4.98,2.44,5.58,4.96
				c0.47,1.95-0.37,3.98-0.29,5.98c0.16,3.6,3.28,6.42,6.58,7.86s6.96,1.95,10.26,3.41c3.3,1.46,6.39,4.33,6.48,7.93"/>
		</g>
		<g>
			<g>
				<linearGradient id="SVGID_2_" gradientUnits="userSpaceOnUse" x1="1387.306" y1="654.5093" x2="1400.9355" y2="693.1263">
					<stop  offset="0" style="stop-color:#00BCD4"/>
					<stop  offset="0.369" style="stop-color:#00B4D5"/>
					<stop  offset="0.9485" style="stop-color:#009DD9"/>
					<stop  offset="0.9553" style="stop-color:#009DD9"/>
				</linearGradient>
				<path class="st2" d="M1404.03,696.11h-4.73c-9.14,0-16.57-7.43-16.57-16.57v-1.92c0-9.14,7.43-16.57,16.57-16.57h4.73v4.62
					h-4.73c-6.59,0-11.95,5.36-11.95,11.95v1.92c0,6.59,5.36,11.95,11.95,11.95h4.73V696.11z"/>
			</g>
			<g>
				<rect x="1400.82" y="661.05" class="st3" width="4.04" height="4.62"/>
				<rect x="1400.82" y="691.49" class="st3" width="4.04" height="4.62"/>
			</g>
			<linearGradient id="SVGID_3_" gradientUnits="userSpaceOnUse" x1="1451.249" y1="636.4322" x2="1361.6765" y2="799.2913">
				<stop  offset="0" style="stop-color:#00BCD4"/>
				<stop  offset="0.369" style="stop-color:#00B4D5"/>
				<stop  offset="0.9485" style="stop-color:#009DD9"/>
				<stop  offset="0.9553" style="stop-color:#009DD9"/>
			</linearGradient>
			<path class="st4" d="M1445.48,653.82h-40.95c-0.28,0-0.5,0.22-0.5,0.5v59.67c0,0.28,0.22,0.5,0.5,0.5h40.95
				c0.28,0,0.5-0.22,0.5-0.5v-59.67C1445.98,654.04,1445.75,653.82,1445.48,653.82z"/>
			<linearGradient id="SVGID_4_" gradientUnits="userSpaceOnUse" x1="1429.9816" y1="682.1587" x2="1391.5585" y2="682.1587">
				<stop  offset="0" style="stop-color:#E8F2FC"/>
				<stop  offset="0.8436" style="stop-color:#D1E6F9"/>
			</linearGradient>
			<path class="st5" d="M1442.9,707.42V656.9h-34.25l0,0c14.79,8.58,25.77,22.46,30.72,38.83L1442.9,707.42z"/>
			<g>
				<rect x="1404.03" y="659.51" class="st0" width="41.95" height="1.54"/>
			</g>
		</g>
	</g>
	<ellipse class="st6" cx="1019.56" cy="949.72" rx="304.21" ry="48.59"/>
	<ellipse class="st6" cx="1364.19" cy="960.58" rx="179.28" ry="28.64"/>
	<path class="st7" d="M767.62,935.38c-7.71,4.48-16.87,8.38-27.05,10.03v3.85c0,0,32.87,0,38.31,0c5.44,0,21.31-7.93,21.31-7.93
		l3.85,7.93h7.93l-2.15-19.21c-7.6,2.66-16.35,4.52-25.74,5.26C778.39,935.77,772.86,935.77,767.62,935.38z"/>
	<linearGradient id="SVGID_5_" gradientUnits="userSpaceOnUse" x1="767.6234" y1="904.766" x2="823.8108" y2="904.766">
		<stop  offset="0" style="stop-color:#A3CDF3"/>
		<stop  offset="1" style="stop-color:#76B4EE"/>
	</linearGradient>
	<path class="st8" d="M808.31,915.4c6.19-11.9,15.06-29.6,15.49-34.11c0.41-4.29-17.26-7.42-17.26-7.42l-12.17,38.91
		c-1.11,1.33-11.94,14.01-26.75,22.61c5.24,0.39,10.77,0.38,16.46-0.07c9.39-0.74,18.13-2.6,25.74-5.26
		C809.82,930.06,807.15,919.56,808.31,915.4z"/>
	<path class="st7" d="M803.37,947.63c-7.71,4.48-16.87,8.38-27.05,10.03v3.85c0,0,32.87,0,38.31,0c5.44,0,21.31-7.93,21.31-7.93
		l3.85,7.93h7.93l-2.15-19.21c-7.6,2.66-16.35,4.52-25.74,5.26C814.14,948.02,808.61,948.02,803.37,947.63z"/>
	<linearGradient id="SVGID_6_" gradientUnits="userSpaceOnUse" x1="803.3734" y1="917.016" x2="859.5608" y2="917.016">
		<stop  offset="0" style="stop-color:#A3CDF3"/>
		<stop  offset="1" style="stop-color:#76B4EE"/>
	</linearGradient>
	<path class="st9" d="M844.06,927.65c6.19-11.9,15.06-29.6,15.49-34.11c0.41-4.29-17.26-7.42-17.26-7.42l-12.17,38.91
		c-1.11,1.33-11.94,14.01-26.75,22.61c5.24,0.39,10.77,0.38,16.46-0.07c9.39-0.74,18.13-2.6,25.74-5.26
		C845.57,942.31,842.9,931.81,844.06,927.65z"/>
	<g>
		<linearGradient id="SVGID_7_" gradientUnits="userSpaceOnUse" x1="1147.3571" y1="76.2431" x2="319.906" y2="509.5764">
			<stop  offset="0.2134" style="stop-color:#FBFDFF"/>
			<stop  offset="0.6535" style="stop-color:#D1E6F9"/>
			<stop  offset="0.9417" style="stop-color:#A3CDF3"/>
		</linearGradient>
		<path class="st10" d="M1147.58,518.01H325.3c-5.86,0-10.6-4.75-10.6-10.6V75.47c0-5.86,4.75-10.6,10.6-10.6h822.28
			c5.86,0,10.6,4.75,10.6,10.6V507.4C1158.18,513.26,1153.43,518.01,1147.58,518.01z"/>
		<path class="st11" d="M1165.76,501.04H343.48c-5.86,0-10.6-4.75-10.6-10.6V58.51c0-5.86,4.75-10.6,10.6-10.6h822.28
			c5.86,0,10.6,4.75,10.6,10.6v431.93C1176.36,496.29,1171.61,501.04,1165.76,501.04z"/>
		<g>
			<path class="st12" d="M485.75,473.17c8.77-10.11,19.98-18.79,31.69-26.52c38.03-25.09,58.75-24.28,108.51-7.56
				c49.77,19.82,74.65,20.31,99.53-5.26c24.88-22.99,49.77-72.05,99.53-91.86c49.76-16.73,74.65,39.91,99.53,91.77
				c7.06,14.55,14.11,28.72,21.74,40.43H485.75V473.17z"/>
			<path class="st13" d="M1025.86,472.93c-9.74-12.55-22.18-23.34-35.19-32.95c-42.23-31.17-65.23-30.16-120.48-9.39
				c-55.26,24.62-82.88,25.23-110.51-6.53c-27.63-28.56-55.26-89.5-110.51-114.12c-55.25-20.78-82.88,49.58-110.51,114
				c-7.84,18.08-15.67,35.68-24.14,50.22h511.35V472.93z"/>
		</g>
		<g>
			<g>
				<path class="st14" d="M661.46,174.41V83.7c8.34,0,16.38,1.08,24.11,3.24c7.73,2.16,14.95,5.21,21.66,9.15
					c6.71,3.94,12.83,8.67,18.36,14.2s10.26,11.65,14.2,18.36c3.94,6.71,6.99,13.93,9.15,21.66c2.16,7.73,3.24,15.76,3.24,24.11
					c0,7.54-0.89,14.82-2.67,21.85c-1.78,7.03-4.3,13.67-7.56,19.91c-3.26,6.25-7.2,12.03-11.81,17.34
					c-4.62,5.31-9.76,10.03-15.44,14.13L661.46,174.41z"/>
				<path class="st15" d="M714.75,247.77c-5.42,3.94-11.09,7.2-17.02,9.78c-5.93,2.58-11.98,4.5-18.17,5.75
					c-6.18,1.25-12.41,1.85-18.68,1.81c-6.27-0.04-12.44-0.72-18.52-2.03c-6.08-1.31-11.99-3.24-17.75-5.78
					c-5.76-2.54-11.22-5.67-16.39-9.4l53.23-73.5L714.75,247.77z"/>
				<path class="st16" d="M608.16,247.77c-6.73-4.91-12.6-10.51-17.6-16.8c-5-6.29-9.05-13-12.16-20.14
					c-3.11-7.14-5.28-14.56-6.51-22.26c-1.23-7.71-1.46-15.44-0.7-23.19c0.76-7.75,2.54-15.38,5.34-22.9
					c2.79-7.52,6.65-14.64,11.56-21.38c5.89-8.13,12.69-14.94,20.42-20.42c7.73-5.48,16.02-9.64,24.87-12.48l28.08,86.2
					L608.16,247.77z"/>
				<path class="st7" d="M633.44,88.14c4.66-1.52,9.33-2.65,14.01-3.37c4.68-0.72,9.35-1.08,14.01-1.08v90.71L633.44,88.14z"/>
				<path class="st0" d="M613.43,174.41c0-4.45,0.57-8.72,1.72-12.83c1.14-4.11,2.75-7.95,4.83-11.53c2.08-3.58,4.56-6.84,7.46-9.78
					c2.9-2.94,6.13-5.46,9.69-7.56s7.39-3.72,11.5-4.86c4.11-1.14,8.39-1.71,12.83-1.71c4.45,0,8.72,0.57,12.83,1.71
					c4.11,1.14,7.95,2.76,11.53,4.86c3.58,2.1,6.84,4.62,9.78,7.56c2.94,2.94,5.46,6.2,7.56,9.78c2.1,3.58,3.72,7.42,4.86,11.53
					c1.14,4.11,1.72,8.38,1.72,12.83c0,4.45-0.57,8.72-1.72,12.83c-1.14,4.11-2.76,7.94-4.86,11.5s-4.62,6.79-7.56,9.69
					c-2.94,2.9-6.2,5.39-9.78,7.46c-3.58,2.08-7.42,3.68-11.53,4.83c-4.11,1.14-8.38,1.72-12.83,1.72c-6.69,0-12.95-1.25-18.77-3.75
					c-5.82-2.5-10.9-5.92-15.25-10.26c-4.34-4.34-7.76-9.42-10.26-15.25C614.68,187.36,613.43,181.1,613.43,174.41z"/>
			</g>
			<g>
				<circle class="st14" cx="822.67" cy="116.23" r="6.33"/>
				<circle class="st7" cx="822.67" cy="148.21" r="6.33"/>
				<circle class="st16" cx="822.67" cy="180.2" r="6.33"/>
				<circle class="st15" cx="822.67" cy="212.18" r="6.33"/>
				<path class="st17" d="M912.93,122.47h-74.44c-3.39,0-6.16-2.77-6.16-6.16v0c0-3.39,2.77-6.16,6.16-6.16h74.44
					c3.39,0,6.16,2.77,6.16,6.16v0C919.09,119.7,916.32,122.47,912.93,122.47z"/>
				<path class="st17" d="M864.92,218.36h-26.42c-3.39,0-6.16-2.77-6.16-6.16v0c0-3.39,2.77-6.16,6.16-6.16h26.42
					c3.39,0,6.16,2.77,6.16,6.16v0C871.08,215.58,868.31,218.36,864.92,218.36z"/>
				<path class="st17" d="M944.78,186.4H838.49c-3.39,0-6.16-2.77-6.16-6.16v0c0-3.39,2.77-6.16,6.16-6.16h106.29
					c3.39,0,6.16,2.77,6.16,6.16v0C950.94,183.62,948.17,186.4,944.78,186.4z"/>
				<path class="st17" d="M893.84,154.43h-55.35c-3.39,0-6.16-2.77-6.16-6.16v0c0-3.39,2.77-6.16,6.16-6.16h55.35
					c3.39,0,6.16,2.77,6.16,6.16v0C900,151.66,897.23,154.43,893.84,154.43z"/>
			</g>
		</g>
	</g>
	<linearGradient id="SVGID_8_" gradientUnits="userSpaceOnUse" x1="834.7294" y1="490.3849" x2="930.5041" y2="532.4446">
		<stop  offset="0" style="stop-color:#A3CDF3"/>
		<stop  offset="1" style="stop-color:#76B4EE"/>
	</linearGradient>
	<path class="st18" d="M897.62,523.25c0,0-15.66-6.79-25.76-11.99c0,0-0.8-18.3-9.83-27.55s-28.18-24.67-29.74-21.64
		s14.22,21.92,14.22,21.92s-13.65,12.05-9.5,22c2.66,6.37,8.22,16.15,22.04,15.28l35.78,23.8L897.62,523.25z"/>
	<path class="st19" d="M887.11,816.36c38.25-76.73,66.12-66.7,160.21-106.37c45.54-19.2-32.83-111.62,123.44-112.93
		s215.36,172.03,176.89,267.89s-106.27,118.16-242.7,118.16C968.52,983.11,846.57,897.67,887.11,816.36z"/>
	<path class="st20" d="M867.02,816.36c38.25-76.73,66.12-66.7,160.21-106.37c45.54-19.2-32.83-111.62,123.44-112.93
		s162.84,166.78,141.83,235.06c-21.01,68.29-71.2,150.99-207.63,150.99S826.48,897.67,867.02,816.36z"/>
	<g>
		
			<ellipse transform="matrix(3.532226e-03 -1 1 3.532226e-03 -641.6368 1242.6821)" class="st6" cx="302.72" cy="943.29" rx="53.46" ry="268.09"/>
		<polygon class="st21" points="251.72,476.53 226.11,472.88 235.07,505.25 		"/>
		
			<linearGradient id="SVGID_9_" gradientUnits="userSpaceOnUse" x1="325.0089" y1="387.2788" x2="377.1161" y2="387.2788" gradientTransform="matrix(1 3.532226e-03 -3.532226e-03 1 1.4663 -0.9459)">
			<stop  offset="0" style="stop-color:#FBFDFF"/>
			<stop  offset="1" style="stop-color:#D1E6F9"/>
		</linearGradient>
		<circle class="st22" cx="351.16" cy="387.57" r="26.05"/>
		<circle class="st23" cx="351.16" cy="387.57" r="13.44"/>
		
			<linearGradient id="SVGID_10_" gradientUnits="userSpaceOnUse" x1="227.2752" y1="459.0196" x2="454.2003" y2="459.0196" gradientTransform="matrix(1 3.532226e-03 -3.532226e-03 1 1.4663 -0.9459)">
			<stop  offset="0" style="stop-color:#FBFDFF"/>
			<stop  offset="1" style="stop-color:#D1E6F9"/>
		</linearGradient>
		<path class="st24" d="M443.53,508.13c-0.44-0.3-0.89-0.58-1.35-0.86c-0.56-0.34-1.14-0.66-1.74-0.95
			c-10.51-6.84-17.45-18.68-17.4-32.15c0.01-3-0.54-5.33-0.53-8.44c0.01-3.11-0.71-5.56-0.71-5.56
			c-1.98-18.31-11.99-34.31-26.42-44.37l0.02-0.07c-9.16-5.66-22.19-17.59-46.49-23.45c-5.18-1.25-10.06-1.92-14.65-2.1
			c0.01-0.25,0.02-0.5,0.02-0.75c0.05-14.39-11.57-26.09-25.96-26.15c-14.39-0.05-26.09,11.57-26.15,25.96
			c-0.03,7.68,3.27,14.59,8.54,19.38c-15.44,17.26-57.3,77.83-63.75,90.62l53.27,27.51c8.77,8.32,16.52,26.18,28.93,28.28
			l39.29-11.53c0,0-1.73-14.52,11.3-14.47c0,0,40.5,12.84,58.43,19.75c1.59,0.88,3.31,1.57,5.1,2.08c0.12,0.05,0.26,0.11,0.37,0.16
			l0.02-0.06c1.93,0.51,3.95,0.81,6.04,0.82c13.25,0.05,24.03-10.65,24.07-23.9C453.83,519.71,449.76,512.48,443.53,508.13z"/>
		<g>
			<defs>
				<polygon id="XMLID_2_" points="170.81,534.29 32.58,765.98 67.11,800.75 210.4,561.67 				"/>
			</defs>
			
				<linearGradient id="XMLID_4_" gradientUnits="userSpaceOnUse" x1="33.8251" y1="668.0438" x2="210.9186" y2="668.0438" gradientTransform="matrix(1 3.532226e-03 -3.532226e-03 1 1.4663 -0.9459)">
				<stop  offset="0" style="stop-color:#129753"/>
				<stop  offset="1" style="stop-color:#18C96E"/>
			</linearGradient>
			<use xlink:href="#XMLID_2_"  style="overflow:visible;fill:url(#XMLID_4_);"/>
			<clipPath id="XMLID_5_">
				<use xlink:href="#XMLID_2_"  style="overflow:visible;"/>
			</clipPath>
			<line class="st25" x1="144.44" y1="536.52" x2="206.53" y2="607.19"/>
			<line class="st25" x1="107.55" y1="587.2" x2="183.72" y2="658.34"/>
			<line class="st25" x1="85.62" y1="629.82" x2="150.27" y2="700.06"/>
			<line class="st25" x1="60.69" y1="677.55" x2="131.68" y2="764.89"/>
			<line class="st25" x1="45.13" y1="733.42" x2="93.15" y2="795.5"/>
		</g>
		
			<linearGradient id="SVGID_11_" gradientUnits="userSpaceOnUse" x1="483.2573" y1="774.1614" x2="394.4144" y2="870.1118" gradientTransform="matrix(1 3.532226e-03 -3.532226e-03 1 1.4663 -0.9459)">
			<stop  offset="0" style="stop-color:#A3CDF3"/>
			<stop  offset="0.6952" style="stop-color:#D3E7F9"/>
			<stop  offset="0.9856" style="stop-color:#FBFDFF"/>
		</linearGradient>
		<path class="st26" d="M487.23,830.07c0,0,0.16-45.61,0.19-52.71c0.03-7.11-3.52-8.9-6.5-4.17c-2.98,4.73-33.53,19.72-71.44,18.7
			L487.23,830.07z"/>
		
			<linearGradient id="SVGID_12_" gradientUnits="userSpaceOnUse" x1="91.485" y1="918.0915" x2="159.8941" y2="878.1122" gradientTransform="matrix(1 3.532226e-03 -3.532226e-03 1 1.4663 -0.9459)">
			<stop  offset="0.0583" style="stop-color:#A3CDF3"/>
			<stop  offset="0.3558" style="stop-color:#D1E6F9"/>
			<stop  offset="0.7977" style="stop-color:#FBFDFF"/>
		</linearGradient>
		<path class="st27" d="M139.81,913.42c4.61-12.68-6.87-52.6-6.87-52.6s-34.44,23.22-39.05,35.9c-4.61,12.68,1.93,26.7,14.61,31.31
			C121.18,932.64,135.2,926.1,139.81,913.42z"/>
		<path class="st7" d="M422.62,550.63c0.23,0.07,0.44,0.16,0.67,0.23c0.12,0.05,0.26,0.11,0.37,0.16l0.02-0.06
			c1.93,0.51,3.95,0.81,6.04,0.82c13.25,0.05,24.03-10.65,24.07-23.9c0.02-6.47-2.55-12.31-6.69-16.64
			C433.4,519.37,423.89,533.84,422.62,550.63z"/>
		<linearGradient id="SVGID_13_" gradientUnits="userSpaceOnUse" x1="200.628" y1="653.6492" x2="381.0201" y2="975.2178">
			<stop  offset="0.2134" style="stop-color:#FBFDFF"/>
			<stop  offset="0.6535" style="stop-color:#D1E6F9"/>
			<stop  offset="0.9417" style="stop-color:#A3CDF3"/>
		</linearGradient>
		<path class="st28" d="M234.36,486.24c0,0-61.86,74.11-100.77,189.47s-30.36,210.75,6.24,245.23s170.41,49.17,252.19,35.84
			s115-27.43,115-27.43s-9.23-68.74-7.85-125.59c0,0-46.41,58.47-126.82,18.51s-30.63-215.7-30.63-215.7l6.74-63.06l-65.67-13.75
			L234.36,486.24z"/>
		
			<linearGradient id="SVGID_14_" gradientUnits="userSpaceOnUse" x1="94.7534" y1="465.7913" x2="317.281" y2="694.4661" gradientTransform="matrix(0.8716 -0.4903 0.4903 0.8716 -10.5193 307.3112)">
			<stop  offset="0" style="stop-color:#A3CDF3"/>
			<stop  offset="0.3224" style="stop-color:#D3E7F9"/>
			<stop  offset="1" style="stop-color:#FBFDFF"/>
		</linearGradient>
		<path class="st29" d="M320.16,582.98c0,0,67.27,79.73,116.02,97.81c46.48,17.24,68.74,22.01,79.56,19.49
			c10.82-2.52,15.65,12.62,10.83,15.84c-4.82,3.22-109.23,42.84-175.65,55.23C350.91,771.35,288.75,632.25,320.16,582.98z"/>
		
			<linearGradient id="SVGID_15_" gradientUnits="userSpaceOnUse" x1="255.0656" y1="709.0057" x2="435.917" y2="866.7855" gradientTransform="matrix(1 3.532226e-03 -3.532226e-03 1 1.4663 -0.9459)">
			<stop  offset="0" style="stop-color:#76B4EE"/>
			<stop  offset="1" style="stop-color:#76B4EE;stop-opacity:0"/>
		</linearGradient>
		<path class="st30" d="M489.98,896.91c0,0-228.65,10.72-254.35-166.17l256.53,93.17L489.98,896.91z"/>
		
			<linearGradient id="SVGID_16_" gradientUnits="userSpaceOnUse" x1="246.3177" y1="612.4077" x2="422.1364" y2="821.8939" gradientTransform="matrix(1 3.532226e-03 -3.532226e-03 1 1.4663 -0.9459)">
			<stop  offset="0.3286" style="stop-color:#FBFDFF"/>
			<stop  offset="1" style="stop-color:#D3E7F9"/>
		</linearGradient>
		<path class="st31" d="M331.29,579.45c0,0-2.88,149.37,52.06,189.99c54.94,40.62,88.24,45.62,96.24,45.21
			c8-0.42,6.18,9.79-8.05,14.63c-14.23,4.84-152.12,55.88-241.27-109.69"/>
		<g>
			<defs>
				<path id="XMLID_1_" d="M226.11,472.88c0,0,18.75,44.15,122.29,66.6l-5.68,67.54c0,0-126.36-4.5-171.91-72.74
					C170.81,534.29,186.34,497.03,226.11,472.88z"/>
			</defs>
			
				<linearGradient id="XMLID_6_" gradientUnits="userSpaceOnUse" x1="171.2355" y1="539.8997" x2="348.8456" y2="539.8997" gradientTransform="matrix(1 3.532226e-03 -3.532226e-03 1 1.4663 -0.9459)">
				<stop  offset="0" style="stop-color:#129753"/>
				<stop  offset="1" style="stop-color:#18C96E"/>
			</linearGradient>
			<use xlink:href="#XMLID_1_"  style="overflow:visible;fill:url(#XMLID_6_);"/>
			<clipPath id="XMLID_7_">
				<use xlink:href="#XMLID_1_"  style="overflow:visible;"/>
			</clipPath>
			<path class="st32" d="M339.22,512.02c0,0-30.1,59.24-35.42,116.43"/>
			<path class="st32" d="M296.95,511.45c0,0-36.84,35.73-51.57,94.17"/>
			<path class="st32" d="M260.76,483.99c0,0-48.81,39.53-75.45,85.98"/>
		</g>
		
			<rect x="461.27" y="644.92" transform="matrix(0.9812 -0.193 0.193 0.9812 -125.2272 109.2465)" class="st23" width="73.43" height="104.6"/>
		
			<linearGradient id="SVGID_17_" gradientUnits="userSpaceOnUse" x1="397.8601" y1="704.5067" x2="462.0678" y2="704.5067" gradientTransform="matrix(0.9812 -0.193 0.193 0.9812 -8.8922 98.1384)">
			<stop  offset="0" style="stop-color:#A3CDF3"/>
			<stop  offset="0.3224" style="stop-color:#D3E7F9"/>
			<stop  offset="1" style="stop-color:#FBFDFF"/>
		</linearGradient>
		<path class="st33" d="M536.28,696.98c-4.07-0.42-19.48,12.97-18.45,17.34c1.02,4.37,19.8,8.21,23.06,5.25
			C544.15,716.61,540.35,697.4,536.28,696.98z"/>
	</g>
	<polygon class="st6" points="897.95,961.58 1260.99,961.58 1260.99,975.65 1075.71,991.56 897.95,975.65 	"/>
	<g class="st34">
		<path class="st23" d="M1156.08,597.76c0,0,9.38,37.5,6.7,85.28c-1.74,31.05-6.25,54.02-42.42,76.8
			c-36.17,22.77-75.46,27.79-125.02,25.56c-76.48-3.45-131.94,86.4-131.94,86.4l38.62-140.09l139.75-17.86L1156.08,597.76z"/>
		<path class="st23" d="M1115.89,756.27c0,0,47.33-28.58,91.53,23.11c0,0-5.07-63.81-57.6-57.93L1115.89,756.27z"/>
		<path class="st23" d="M1115.45,757.61c0,0,45.28,9.58,69.36,53.72c0,0-6-51.33-50-70.67L1115.45,757.61z"/>
		<path class="st23" d="M1122.77,753.14c0,0,22.43,28.15-7.53,66.55c0,0,40.99-32.66,17-66.82L1122.77,753.14z"/>
		<path class="st23" d="M1115.24,819.69c0,0,15.83-41.99-29.71-50.92l42.86-21.88l7.14,27.68
			C1135.54,774.57,1135.13,795.15,1115.24,819.69z"/>
	</g>
	<linearGradient id="SVGID_18_" gradientUnits="userSpaceOnUse" x1="795.6179" y1="798.4224" x2="919.0169" y2="798.4224">
		<stop  offset="0" style="stop-color:#00BCD4"/>
		<stop  offset="1" style="stop-color:#008D9F"/>
	</linearGradient>
	<path class="st35" d="M919.02,757L815.08,908.22l-19.46-8.11c0,0,55.4-206.3,73.82-211.49"/>
	
		<ellipse transform="matrix(0.2812 -0.9596 0.9596 0.2812 445.8883 1298.3961)" class="st36" cx="1089.68" cy="351.55" rx="17.83" ry="16.93"/>
	<path class="st37" d="M1084.19,351.41c-3.94-1.16-7.91-1.2-11.49-0.33c-0.42,7.96,4.35,15.36,11.96,17.59
		c4.99,1.46,10.15,0.4,14.22-2.46C1097.44,359.58,1091.93,353.67,1084.19,351.41z"/>
	
		<linearGradient id="SVGID_19_" gradientUnits="userSpaceOnUse" x1="781.6349" y1="655.2779" x2="753.5304" y2="686.3248" gradientTransform="matrix(-1 7.340203e-03 7.340203e-03 1 1718.0396 -22.0676)">
		<stop  offset="0" style="stop-color:#A3CDF3"/>
		<stop  offset="1" style="stop-color:#76B4EE"/>
	</linearGradient>
	<path class="st38" d="M996.35,638.23c-40.38,7.69-37.58,0.41-57.15,11.25c0,0-38.75,17.15-42.91,21.42
		c-3.09,3.18,33.03,7.8,40.42,3.42c8.16-4.83,10.75-15.34,20.97-15.11c7.71,0.17,55.2-23.98,55.2-23.98
		S1004.01,636.77,996.35,638.23z"/>
	
		<linearGradient id="SVGID_20_" gradientUnits="userSpaceOnUse" x1="647.9238" y1="806.77" x2="620.7729" y2="967.0895" gradientTransform="matrix(-0.9989 -0.0479 -0.0479 0.9989 1730.6425 -409.9143)">
		<stop  offset="0" style="stop-color:#A3CDF3"/>
		<stop  offset="1" style="stop-color:#76B4EE"/>
	</linearGradient>
	<path class="st39" d="M1007.17,432.72c-0.94-0.05-1.47-1.1-0.94-1.88l7.41-13.41c0,0-0.97-7.64-0.89-10.2
		c0.43-13.09,6.85-26.21,16.26-38.71l63.4,3.04c0,0-9.97,63.86-4.03,84.03c1.47,5,12.11,16.95,12.11,16.95l-31.65,37.78
		l-10.71-57.24c0,0-13.36,6.11-18.08,7.35c-10.19,2.68-19.36,2.14-22.1-8.9c-1.46-5.87-1.72-5.96-4.8-17.78L1007.17,432.72z"/>
	<path class="st14" d="M1065.55,491.83c11.5-19.98,14.21-60.58,14.21-60.58s-7.73,12.62-21.63,21.83L1065.55,491.83z"/>
	<path class="st40" d="M1130.25,698.13c0,0,8.62,62.22-85.14,62.77c-31.08,0.18-124.3-0.36-124.3-0.36l-72.19,162.31l-20.27-5.78
		c0,0,27.18-221.23,40.07-228.25c13.37-7.29,93.78-4.99,161.08-8.08L1130.25,698.13z"/>
	<path class="st19" d="M1067.98,515.94c0,0-95.47,38.73-180.97,2.55l-2.14,24.03c0,0,122.82,40.89,156.79,29.23
		C1041.67,571.75,1050.86,541.25,1067.98,515.94z"/>
	<path class="st0" d="M1095.16,465.91c0,0,67.24,48.13,62.86,156.92c0,0-5.45,63.6-19.88,82.51l-112.67-24.57l68.8-98.71
		c0,0-53.08,76.15-140.42,81.67l-5.27-21.02c30.52-13.76,58.59-25.09,87.05-76.86c14.34-26.08,22.07-46.34,30.88-59.65
		C1088.29,473.35,1095.16,465.91,1095.16,465.91z"/>
	<path class="st17" d="M1095.45,468.67c4.41,3.53,18.06,15.39,31.2,36.15c14.63,23.12,31.61,62.35,29.37,117.93
		c-0.05,0.53-5.36,60.91-18.73,80.35l-108.46-23.65l67.08-96.24l-3.29-2.29c-0.13,0.19-13.43,19.08-37.13,38.4
		c-21.56,17.58-56.33,39.06-100.11,42.3l-4.46-17.76l1.4-0.63c29.41-13.22,57.18-25.71,85.06-76.4
		c6.64-12.08,11.84-22.85,16.43-32.36c5.2-10.78,9.69-20.09,14.37-27.15C1084.73,482.35,1092.69,472.07,1095.45,468.67
		 M1095.16,465.91c0,0-6.87,7.43-28.64,40.3c-8.82,13.31-16.54,33.57-30.88,59.65c-28.47,51.77-56.54,63.09-87.05,76.86l5.27,21.02
		c87.32-5.52,140.39-81.63,140.42-81.67l0,0l-68.8,98.71l112.67,24.57c14.43-18.91,19.88-82.51,19.88-82.51
		C1162.41,514.04,1095.16,465.91,1095.16,465.91L1095.16,465.91z"/>
	
		<linearGradient id="SVGID_21_" gradientUnits="userSpaceOnUse" x1="666.3552" y1="627.6812" x2="640.2507" y2="656.5188" gradientTransform="matrix(-1 7.340203e-03 7.340203e-03 1 1718.0396 -22.0676)">
		<stop  offset="0" style="stop-color:#A3CDF3"/>
		<stop  offset="1" style="stop-color:#FFFFFF"/>
	</linearGradient>
	<path class="st41" d="M1027.19,641.23c0,0,32.81-30.92,75.95-82.44c0,0-14.66,119.84-77.51,120.98L1027.19,641.23z"/>
	<polygon class="st7" points="920.81,760.54 835.83,919.21 848.61,922.85 	"/>
	<path class="st36" d="M1084.51,355.73c-45.54-14.64-70.08,12.8-70.08,12.8l0.24,0.18c0,0,0,0,0,0.01
		c-11.09,16.25-1.82,33.87-1.82,33.87c7.19,11.18,26.37,9.79,37.97,7.74c0.83-4.48,4.49-7.59,8.27-6.95
		c3.82,0.64,6.3,4.86,5.53,9.44c-0.53,3.2-2.51,5.71-4.96,6.72c-0.2,0.41-0.43,0.8-0.72,1.18c-4.69,6.27-10.91,19.36-3.76,26.53
		c9.55,9.58-3.42,16.06,4.28,26.86c0,0,3.94-22.21,19.39-15.43c13.13,5.76,5.87-17.86,14.79-14.33c8.92,3.53,2.03-16.65,11.29-12.71
		c9.19,3.91,0.58-16.31,12.44-11.1c11.86,5.21,14.39-14.29,14.39-14.29C1107.87,409.89,1105.31,362.61,1084.51,355.73z"/>
	
		<rect x="847.18" y="670.99" transform="matrix(0.999 -0.0451 0.0451 0.999 -29.652 41.9184)" class="st42" width="136" height="15.67"/>
	<g>
		<polygon class="st42" points="950.55,661.24 946.68,664.61 938.74,649.63 943.3,647.29 		"/>
		<path class="st43" d="M948.73,658.07l-4.38,2.25c-0.74,0.38-1.65,0.09-2.03-0.65l-2.34-4.54c-0.38-0.74-0.09-1.65,0.65-2.03
			l4.38-2.25c0.74-0.38,1.65-0.09,2.03,0.65l2.34,4.54C949.76,656.77,949.47,657.69,948.73,658.07z"/>
		<path class="st0" d="M948.01,657.63l-3.6,1.85c-0.61,0.31-1.36,0.07-1.67-0.54l-1.92-3.74c-0.31-0.61-0.07-1.36,0.54-1.67
			l3.6-1.85c0.61-0.31,1.36-0.07,1.67,0.54l1.92,3.74C948.86,656.56,948.62,657.32,948.01,657.63z"/>
	</g>
	<g>
		<g>
			<linearGradient id="SVGID_22_" gradientUnits="userSpaceOnUse" x1="1406.9266" y1="964.5882" x2="1406.9266" y2="646.4398">
				<stop  offset="0" style="stop-color:#FF9900"/>
				<stop  offset="0.0714" style="stop-color:#F78803"/>
				<stop  offset="0.1753" style="stop-color:#EF7706"/>
				<stop  offset="0.3047" style="stop-color:#E96C08"/>
				<stop  offset="0.4864" style="stop-color:#E6650A"/>
				<stop  offset="0.9905" style="stop-color:#E5630A"/>
			</linearGradient>
			<polygon class="st44" points="1373.31,771.82 1429.29,961.77 1440.55,961.77 1404.26,771.82 			"/>
			<linearGradient id="SVGID_23_" gradientUnits="userSpaceOnUse" x1="1345.1862" y1="958.96" x2="1345.1862" y2="645.1348">
				<stop  offset="0" style="stop-color:#FF9900"/>
				<stop  offset="0.0714" style="stop-color:#F78803"/>
				<stop  offset="0.1753" style="stop-color:#EF7706"/>
				<stop  offset="0.3047" style="stop-color:#E96C08"/>
				<stop  offset="0.4864" style="stop-color:#E6650A"/>
				<stop  offset="0.9905" style="stop-color:#E5630A"/>
			</linearGradient>
			<polygon class="st45" points="1378.81,771.82 1322.82,961.77 1311.57,961.77 1347.85,771.82 			"/>
			<linearGradient id="SVGID_24_" gradientUnits="userSpaceOnUse" x1="1260.3768" y1="962.7549" x2="1356.9985" y2="666.9257">
				<stop  offset="0" style="stop-color:#FF9900"/>
				<stop  offset="0.9905" style="stop-color:#E5630A"/>
			</linearGradient>
			<polygon class="st46" points="1335.19,771.82 1279.2,961.77 1267.95,961.77 1304.23,771.82 			"/>
			<linearGradient id="SVGID_25_" gradientUnits="userSpaceOnUse" x1="1497.7496" y1="948.9821" x2="1370.4886" y2="600.1114">
				<stop  offset="0" style="stop-color:#FF9900"/>
				<stop  offset="0.9905" style="stop-color:#E5630A"/>
			</linearGradient>
			<polygon class="st47" points="1424.3,771.82 1480.28,961.77 1491.54,961.77 1455.26,771.82 			"/>
		</g>
		<rect x="1331.37" y="714.24" class="st48" width="173.68" height="182.27"/>
		<rect x="1253.14" y="714.24" class="st49" width="224.55" height="182.27"/>
		<rect x="1261.83" y="721.3" class="st50" width="207.18" height="90.98"/>
		<linearGradient id="SVGID_26_" gradientUnits="userSpaceOnUse" x1="1260.4779" y1="717.6573" x2="1299.2078" y2="803.558">
			<stop  offset="0" style="stop-color:#BF7300"/>
			<stop  offset="1" style="stop-color:#FF9900;stop-opacity:0"/>
		</linearGradient>
		<polygon class="st51" points="1261.83,721.3 1344.46,812.28 1261.83,812.28 		"/>
		<polygon class="st52" points="1400.61,812.28 1389.54,812.28 1365.81,721.33 1376.88,721.33 		"/>
		<polygon class="st52" points="1426.71,812.28 1415.64,812.28 1391.91,721.33 1402.98,721.33 		"/>
	</g>
</g>
</svg>
